<svg xmlns="http://www.w3.org/2000/svg" viewBox="0 0 39.86 52.94"><defs><style>.cls-1{fill:#3556a6;stroke:#fff;stroke-miterlimit:10;}</style></defs><title>Asset 8</title><g id="Layer_2" data-name="Layer 2"><g id="Layer_1-2" data-name="Layer 1"><path class="cls-1" d="M20.43.5A20,20,0,0,0,.5,20.58a27.63,27.63,0,0,0,3.06,12,50.52,50.52,0,0,0,6.66,10.06,70,70,0,0,0,9.65,9.57.88.88,0,0,0,.56.19,1,1,0,0,0,.57-.19,70.93,70.93,0,0,0,9.64-9.57A50.52,50.52,0,0,0,37.3,32.62a27.63,27.63,0,0,0,3.06-12A20,20,0,0,0,20.43.5Zm0,12.44a7.64,7.64,0,1,1-7.58,7.64A7.61,7.61,0,0,1,20.43,12.94Z"/></g></g></svg>