<svg xmlns="http://www.w3.org/2000/svg" viewBox="0 0 57.67 57.69"><defs><style>.cls-1{fill:#3556a6;stroke:#fff;stroke-miterlimit:10;}</style></defs><title>Asset 7</title><g id="Layer_2" data-name="Layer 2"><g id="Layer_1-2" data-name="Layer 1"><path class="cls-1" d="M57.17,14.68a7.08,7.08,0,0,0-13.55-2.87l-6-1L37,14.29l6.08,1a7.09,7.09,0,0,0,4.37,5.92l-1.72,13a7.08,7.08,0,0,0-6.25,7v0L19.05,46.65a7.06,7.06,0,0,0-5.24-3.54L10.19,14.17a7.12,7.12,0,0,0,3.86-3.71l5.47.91.59-3.49L14.61,7a7.07,7.07,0,1,0-7.94,7.62l3.62,28.93A7.09,7.09,0,1,0,20,50.09v0L40.4,44.68a7.06,7.06,0,1,0,8.81-10l1.73-13A7.07,7.07,0,0,0,57.17,14.68Z"/><rect class="cls-1" x="30.27" y="9.9" width="3.54" height="3.54" transform="translate(15.26 41.35) rotate(-80.53)"/><rect class="cls-1" x="23.28" y="8.73" width="3.54" height="3.54" transform="translate(10.56 33.48) rotate(-80.52)"/></g></g></svg>