<svg xmlns="http://www.w3.org/2000/svg" viewBox="0 0 56.67 56.69"><defs><style>.cls-1{fill:#67aa44;}</style></defs><title>No border</title><g id="Layer_2" data-name="Layer 2"><g id="Layer_1-2" data-name="Layer 1"><path class="cls-1" d="M56.67,14.18a7.08,7.08,0,0,0-13.55-2.87l-6-1-.6,3.49,6.08,1a7.09,7.09,0,0,0,4.37,5.92l-1.72,13a7.08,7.08,0,0,0-6.25,7v0L18.55,46.15a7.06,7.06,0,0,0-5.24-3.54L9.69,13.67A7.12,7.12,0,0,0,13.55,10l5.47.91.59-3.49-5.5-.92a7.07,7.07,0,1,0-7.94,7.62L9.79,43a7.09,7.09,0,1,0,9.69,6.58v0L39.9,44.18a7.06,7.06,0,1,0,8.81-10l1.73-13A7.07,7.07,0,0,0,56.67,14.18Z"/><rect class="cls-1" x="29.77" y="9.4" width="3.54" height="3.54" transform="translate(15.34 40.44) rotate(-80.53)"/><rect class="cls-1" x="22.78" y="8.23" width="3.54" height="3.54" transform="translate(10.64 32.57) rotate(-80.52)"/></g></g></svg>