<svg xmlns="http://www.w3.org/2000/svg" viewBox="0 0 454 426.46"><defs><style>.cls-1{fill:#d6e2f3;}.cls-2{fill:#a3a3d8;}.cls-3{fill:#5a84c3;}.cls-4{fill:#fff;}.cls-5{fill:#3a58a7;}.cls-6{fill:#f68c44;}.cls-7{fill:#f9bc58;}.cls-12,.cls-8{fill:#eee;}.cls-8{opacity:0.58;}.cls-13,.cls-9{fill:#cbcbcb;}.cls-10{fill:#fda589;}.cls-11{fill:#fbe98e;}.cls-12{opacity:0.64;}.cls-13{opacity:0.72;}.cls-14,.cls-18{fill:#cecece;}.cls-15{fill:#dbdbdb;}.cls-16{fill:#327abf;}.cls-17{fill:#9f9f9f;}.cls-18{opacity:0.43;}.cls-19{fill:#b2b2b2;}.cls-20{fill:#f2f2f2;}.cls-21{fill:#f6f6f6;}</style></defs><title>placeholder_color</title><g id="Layer_2" data-name="Layer 2"><g id="Layer_1-2" data-name="Layer 1"><path class="cls-1" d="M454,88.84V340.72a24,24,0,0,1-24.06,24.06H24.06A24.06,24.06,0,0,1,0,340.72V88.84A24.06,24.06,0,0,1,24.06,64.78H429.94A24,24,0,0,1,454,88.84"/><path class="cls-2" d="M454,88.84v23.94H0V88.84A24.06,24.06,0,0,1,24.06,64.78H429.94A24.06,24.06,0,0,1,454,88.84"/><rect class="cls-3" x="27.58" y="127.25" width="118.9" height="16.53"/><polyline class="cls-4" points="427.87 209.01 242.13 209.01 242.13 340.74 427.87 340.74 427.87 209.01"/><polyline class="cls-5" points="420.03 315.98 251.03 315.98 251.03 332.51 420.03 332.51 420.03 315.98"/><polyline class="cls-6" points="272.03 283.99 251.03 283.99 251.03 300.52 272.03 300.52 272.03 283.99"/><polyline class="cls-7" points="336.03 252 251.03 252 251.03 268.53 336.03 268.53 336.03 252"/><polyline class="cls-3" points="397.03 220.01 251.03 220.01 251.03 236.54 397.03 236.54 397.03 220.01"/><circle class="cls-6" cx="33" cy="88.78" r="15"/><circle class="cls-7" cx="73" cy="88.78" r="15"/><path class="cls-8" d="M449.18,74.38A24,24,0,0,1,454,88.84v23.94H430.68a99.42,99.42,0,0,1-53.44,88.34q-3.17,1.38-6.37,2.58l2.77,5.31h54.23V340.74H284l7.33,24H429.94A24,24,0,0,0,454,340.72V88.84a24,24,0,0,0-4.82-14.46m0,0,0,0,0,0m0,0,0,0,0,0m0,0v0"/><path class="cls-9" d="M429.94,64.78H418.2c.4.72.79,1.44,1.17,2.17a99.11,99.11,0,0,1,11.31,45.83H454V88.84a24,24,0,0,0-4.82-14.46h0l0,0h0l0,0h0l0,0h0v0h0a24.05,24.05,0,0,0-19.13-9.46"/><path class="cls-4" d="M427.86,209H373.64l5.33,10.2-1.56.8H397v16.53H252.29L257,252h79v16.53H262L266.75,284H272v16.53h-.24L276.5,316H420v16.53H281.54l2.51,8.23H427.86V209"/><polyline class="cls-3" points="420.03 315.98 276.5 315.98 281.54 332.51 420.03 332.51 420.03 315.98"/><polyline class="cls-10" points="272.03 283.99 266.75 283.99 271.79 300.52 272.03 300.52 272.03 283.99"/><polyline class="cls-11" points="336.03 252 257 252 262.04 268.53 336.03 268.53 336.03 252"/><path class="cls-12" d="M231.75,112.78H214.57L243.9,209h62.91c-1.47-.28-2.93-.59-4.39-.93l-1-.23a99.52,99.52,0,0,1-69.67-95.07"/><path class="cls-13" d="M244.21,64.78H199.94l14.63,48h17.18a100.09,100.09,0,0,1,12.46-48"/><path class="cls-4" d="M306.81,209H243.9L251,232.42V220h54l3.36-10.71-1.57-.29"/><path class="cls-3" d="M397,220H377.41a99.25,99.25,0,0,1-74.25,5.93L305,220H251v12.41l1.26,4.12H397V220"/><path class="cls-14" d="M370.87,203.7a119.6,119.6,0,0,1-19,5.31h21.76l-2.77-5.31"/><path class="cls-15" d="M373.64,209H351.88a119.13,119.13,0,0,1-43.5.29L305,220h72.39l1.56-.8L373.64,209"/><path class="cls-16" d="M377.41,220H305l-1.86,5.93A99.25,99.25,0,0,0,377.41,220"/><path class="cls-15" d="M331.12,13.51a99.51,99.51,0,0,0-86.91,51.27h174a99.53,99.53,0,0,0-87.08-51.27"/><polyline class="cls-17" points="418.2 64.78 244.21 64.78 244.21 64.78 418.2 64.78 418.2 64.78"/><path class="cls-18" d="M430.68,112.78H231.75a99.52,99.52,0,0,0,69.67,95.07l1,.23c1.46.34,2.92.65,4.39.93h45.07a119.6,119.6,0,0,0,19-5.31q3.21-1.2,6.36-2.58a99.41,99.41,0,0,0,53.45-88.34"/><path class="cls-19" d="M418.2,64.78h-174a99.79,99.79,0,0,0-12.46,48H430.68A99.11,99.11,0,0,0,419.37,67c-.38-.73-.77-1.45-1.17-2.17"/><path class="cls-15" d="M351.88,209H306.81l1.57.29a119.13,119.13,0,0,0,43.5-.29"/><path class="cls-7" d="M331.21,99.47,326,116.16l-24.55,78.18A99.45,99.45,0,0,1,236.33,69.68l83.46,26.2Z"/><path class="cls-5" d="M379,205.71a99.14,99.14,0,0,1-75.82,6.72l26.47-84.29,3.32-10.59Z"/><path class="cls-6" d="M377.23,187.62l-46-88.15-11.42-3.59-83.46-26.2a99.15,99.15,0,0,1,48.85-58.37c2.55-1.33,5.12-2.54,7.73-3.62a99.44,99.44,0,0,1,84.32,179.93Z"/><polyline class="cls-4" points="211.87 155.01 26.13 155.01 26.13 340.74 211.87 340.74 211.87 155.01"/><polyline class="cls-16" points="79.08 240.25 43.08 240.25 43.08 330.24 79.08 330.24 79.08 240.25"/><polyline class="cls-7" points="137 210.25 101 210.25 101 330.24 137 330.24 137 210.25"/><polyline class="cls-6" points="194.91 177.25 158.92 177.25 158.92 330.24 194.91 330.24 194.91 177.25"/><polyline class="cls-5" points="257.15 297.46 257.15 426.46 14.32 426.46 14.32 297.46 257.15 297.46"/><polyline class="cls-20" points="29.32 411.46 29.32 312.46 242.14 312.46 242.14 411.46 29.32 411.46"/><polyline class="cls-6" points="122.38 402.68 101.72 380.3 92.98 392.17 86.22 387.18 101 367.13 120.67 388.43 151.56 332.66 175.1 370.5 202.71 321.25 210.04 325.36 175.48 387.01 151.98 349.24 122.38 402.68"/><rect class="cls-3" x="40.32" y="329.46" width="27" height="11"/><rect class="cls-3" x="40.32" y="356.46" width="27" height="11"/><rect class="cls-3" x="40.32" y="383.46" width="27" height="11"/><polyline class="cls-3" points="257.15 297.46 223.75 297.46 187.75 297.46 165.83 297.46 129.83 297.46 107.92 297.46 107.2 297.46 111.77 312.46 242.14 312.46 242.14 411.46 141.94 411.46 146.51 426.46 257.15 426.46 257.15 297.46"/><polyline class="cls-21" points="242.14 312.46 111.77 312.46 129.86 371.83 151.56 332.66 175.1 370.5 202.71 321.25 210.04 325.36 175.48 387.01 151.98 349.24 133.27 383.02 141.94 411.46 242.14 411.46 242.14 312.46"/><polyline class="cls-10" points="202.71 321.25 175.1 370.5 151.56 332.66 129.86 371.83 133.27 383.02 151.98 349.24 175.48 387.01 210.04 325.36 202.71 321.25"/></g></g></svg>