<?xml version="1.0" encoding="UTF-8" standalone="no"?>
<!-- Created with Inkscape (http://www.inkscape.org/) -->

<svg
   xmlns:dc="http://purl.org/dc/elements/1.1/"
   xmlns:cc="http://creativecommons.org/ns#"
   xmlns:rdf="http://www.w3.org/1999/02/22-rdf-syntax-ns#"
   xmlns:svg="http://www.w3.org/2000/svg"
   xmlns="http://www.w3.org/2000/svg"
   version="1.1"
   width="33.333"
   height="24.999722"
   id="svg2"
   xml:space="preserve"><metadata
     id="metadata8"><rdf:RDF><cc:Work
         rdf:about=""><dc:format>image/svg+xml</dc:format><dc:type
           rdf:resource="http://purl.org/dc/dcmitype/StillImage" /><dc:title></dc:title></cc:Work></rdf:RDF></metadata><defs
     id="defs6"><clipPath
       id="clipPath22"><path
         d="M 0,600 800,600 800,0 0,0 0,600 z"
         id="path24" /></clipPath><clipPath
       id="clipPath44"><path
         d="M 0,600 800,600 800,0 0,0 0,600 z"
         id="path46" /></clipPath></defs><g
     transform="translate(-31.843069,608.60967)"
     id="layer1"><g
       transform="matrix(1.0017338,0.25543229,0.70244769,-0.27202885,47.115356,-585.41469)"
       id="g204-9-0"><path
         d="M 0,0 -36.938,36.938"
         id="path206-9-8"
         style="fill:none;stroke:#808080;stroke-width:1;stroke-linecap:butt;stroke-linejoin:miter;stroke-miterlimit:10;stroke-opacity:1;stroke-dasharray:none" /></g><g
       transform="matrix(0.18341184,0.88135099,0.48066108,0.44214173,43.822937,-586.48846)"
       id="g204-9-0-6"><path
         d="M 0,0 -36.938,36.938"
         id="path206-9-8-6"
         style="fill:none;stroke:#808080;stroke-width:1;stroke-linecap:butt;stroke-linejoin:miter;stroke-miterlimit:10;stroke-opacity:1;stroke-dasharray:none" /></g><g
       transform="matrix(-0.57705643,0.74198776,-0.08244719,0.73988942,44.314021,-588.34574)"
       id="g204-9-0-1"><path
         d="M 0,0 -36.938,36.938"
         id="path206-9-8-1"
         style="fill:none;stroke:#808080;stroke-width:1;stroke-linecap:butt;stroke-linejoin:miter;stroke-miterlimit:10;stroke-opacity:1;stroke-dasharray:none" /></g></g><g
     transform="matrix(1.25,0,0,-1.25,-106.14781,1263.6097)"
     id="g10"><g
       transform="matrix(0.35365925,0,0,0.35012009,104.89911,1004.563)"
       id="g82"><path
         d="m 0,0 c 0,-5.065 -4.106,-9.17 -9.171,-9.17 -5.067,0 -9.173,4.105 -9.173,9.17 0,5.067 4.106,9.173 9.173,9.173 C -4.106,9.173 0,5.067 0,0"
         id="path84"
         style="fill:#c61e24;fill-opacity:1;fill-rule:nonzero;stroke:none" /></g><g
       transform="matrix(0.35365925,0,0,0.35012009,111.58465,994.95355)"
       id="g86"><path
         d="m 0,0 c 0,-6.414 -5.199,-11.612 -11.614,-11.612 -6.412,0 -11.614,5.198 -11.614,11.612 0,6.415 5.202,11.614 11.614,11.614 C -5.199,11.614 0,6.415 0,0"
         id="path88"
         style="fill:#eb6f24;fill-opacity:1;fill-rule:nonzero;stroke:none" /></g><g
       transform="matrix(0.35365925,0,0,0.35012009,99.288062,994.8525)"
       id="g90"><path
         d="m 0,0 c 0,-5.065 -4.107,-9.171 -9.174,-9.171 -5.065,0 -9.172,4.106 -9.172,9.171 0,5.066 4.107,9.173 9.172,9.173 C -4.107,9.173 0,5.066 0,0"
         id="path92"
         style="fill:#818991;fill-opacity:1;fill-rule:nonzero;stroke:none" /></g><g
       transform="matrix(0.35365925,0,0,0.35012009,91.88746,1007.4373)"
       id="g94"><path
         d="m 0,0 c 0,-5.441 -4.411,-9.852 -9.854,-9.852 -5.44,0 -9.852,4.411 -9.852,9.852 0,5.442 4.412,9.855 9.852,9.855 C -4.411,9.855 0,5.442 0,0"
         id="path96"
         style="fill:#ea8e4d;fill-opacity:1;fill-rule:nonzero;stroke:none" /></g></g></svg>