<?xml version="1.0" encoding="UTF-8" standalone="no"?>
<!-- Created with Inkscape (http://www.inkscape.org/) -->

<svg
   xmlns:dc="http://purl.org/dc/elements/1.1/"
   xmlns:cc="http://creativecommons.org/ns#"
   xmlns:rdf="http://www.w3.org/1999/02/22-rdf-syntax-ns#"
   xmlns:svg="http://www.w3.org/2000/svg"
   xmlns="http://www.w3.org/2000/svg"
   xmlns:sodipodi="http://sodipodi.sourceforge.net/DTD/sodipodi-0.dtd"
   xmlns:inkscape="http://www.inkscape.org/namespaces/inkscape"
   id="svg2"
   version="1.1"
   inkscape:version="0.48.5 r10040"
   width="39.999996"
   height="30.000004"
   xml:space="preserve"
   sodipodi:docname="entryscape.svg"><metadata
     id="metadata8"><rdf:RDF><cc:Work
         rdf:about=""><dc:format>image/svg+xml</dc:format><dc:type
           rdf:resource="http://purl.org/dc/dcmitype/StillImage" /><dc:title /></cc:Work></rdf:RDF></metadata><defs
     id="defs6"><clipPath
       clipPathUnits="userSpaceOnUse"
       id="clipPath22"><path
         d="M 0,600 800,600 800,0 0,0 0,600 z"
         id="path24"
         inkscape:connector-curvature="0" /></clipPath><clipPath
       clipPathUnits="userSpaceOnUse"
       id="clipPath44"><path
         d="M 0,600 800,600 800,0 0,0 0,600 z"
         id="path46"
         inkscape:connector-curvature="0" /></clipPath></defs><sodipodi:namedview
     pagecolor="#ffffff"
     bordercolor="#666666"
     borderopacity="1"
     objecttolerance="10"
     gridtolerance="10"
     guidetolerance="10"
     inkscape:pageopacity="0"
     inkscape:pageshadow="2"
     inkscape:window-width="1222"
     inkscape:window-height="922"
     id="namedview4"
     showgrid="false"
     inkscape:zoom="1.01"
     inkscape:cx="-17.332411"
     inkscape:cy="-100.70685"
     inkscape:window-x="211"
     inkscape:window-y="103"
     inkscape:window-maximized="0"
     inkscape:current-layer="g10"
     fit-margin-top="0"
     fit-margin-left="0"
     fit-margin-right="0"
     fit-margin-bottom="0" /><g
     inkscape:groupmode="layer"
     id="layer1"
     inkscape:label="Layer"
     transform="translate(-28.509565,611.1098)"><g
       id="g204-9-0"
       transform="matrix(1.2020925,0.3065218,0.84294561,-0.32643787,46.836497,-583.27553)"><path
         d="M 0,0 -36.938,36.938"
         style="fill:none;stroke:#808080;stroke-width:1;stroke-linecap:butt;stroke-linejoin:miter;stroke-miterlimit:10;stroke-opacity:1;stroke-dasharray:none"
         id="path206-9-8"
         inkscape:connector-curvature="0" /></g><g
       id="g204-9-0-6"
       transform="matrix(0.2200964,1.0576317,0.57679903,0.53057535,42.885555,-584.56407)"><path
         d="M 0,0 -36.938,36.938"
         style="fill:none;stroke:#808080;stroke-width:1;stroke-linecap:butt;stroke-linejoin:miter;stroke-miterlimit:10;stroke-opacity:1;stroke-dasharray:none"
         id="path206-9-8-6"
         inkscape:connector-curvature="0" /></g><g
       id="g204-9-0-1"
       transform="matrix(-0.6924746,0.89039416,-0.09893761,0.88787613,43.474862,-586.79283)"><path
         d="M 0,0 -36.938,36.938"
         style="fill:none;stroke:#808080;stroke-width:1;stroke-linecap:butt;stroke-linejoin:miter;stroke-miterlimit:10;stroke-opacity:1;stroke-dasharray:none"
         id="path206-9-8-1"
         inkscape:connector-curvature="0" /></g></g><g
     id="g10"
     inkscape:groupmode="layer"
     inkscape:label="widgets"
     transform="matrix(1.25,0,0,-1.25,-102.81431,1266.1098)"><g
       id="g82"
       transform="matrix(0.42439532,0,0,0.42014828,106.22872,1005.2981)"><path
         d="m 0,0 c 0,-5.065 -4.106,-9.17 -9.171,-9.17 -5.067,0 -9.173,4.105 -9.173,9.17 0,5.067 4.106,9.173 9.173,9.173 C -4.106,9.173 0,5.067 0,0"
         style="fill:#c61e24;fill-opacity:1;fill-rule:nonzero;stroke:none"
         id="path84"
         inkscape:connector-curvature="0" /></g><g
       id="g86"
       transform="matrix(0.42439532,0,0,0.42014828,114.25145,993.76662)"><path
         d="m 0,0 c 0,-6.414 -5.199,-11.612 -11.614,-11.612 -6.412,0 -11.614,5.198 -11.614,11.612 0,6.415 5.202,11.614 11.614,11.614 C -5.199,11.614 0,6.415 0,0"
         style="fill:#eb6f24;fill-opacity:1;fill-rule:nonzero;stroke:none"
         id="path88"
         inkscape:connector-curvature="0" /></g><g
       id="g90"
       transform="matrix(0.42439532,0,0,0.42014828,99.495396,993.64536)"><path
         d="m 0,0 c 0,-5.065 -4.107,-9.171 -9.174,-9.171 -5.065,0 -9.172,4.106 -9.172,9.171 0,5.066 4.107,9.173 9.172,9.173 C -4.107,9.173 0,5.066 0,0"
         style="fill:#818991;fill-opacity:1;fill-rule:nonzero;stroke:none"
         id="path92"
         inkscape:connector-curvature="0" /></g><g
       id="g94"
       transform="matrix(0.42439532,0,0,0.42014828,90.614586,1008.7473)"><path
         d="m 0,0 c 0,-5.441 -4.411,-9.852 -9.854,-9.852 -5.44,0 -9.852,4.411 -9.852,9.852 0,5.442 4.412,9.855 9.852,9.855 C -4.411,9.855 0,5.442 0,0"
         style="fill:#ea8e4d;fill-opacity:1;fill-rule:nonzero;stroke:none"
         id="path96"
         inkscape:connector-curvature="0" /></g></g></svg>